<svg id="visual" viewBox="0 0 900 600" width="900" height="600" xmlns="http://www.w3.org/2000/svg" xmlns:xlink="http://www.w3.org/1999/xlink" version="1.1"><g stroke-width="1" stroke-linejoin="bevel"><path d="M507.3 233L543.3 339L651.9 238Z" fill="#205a7a" stroke="#205a7a"></path><path d="M543.3 339L670.9 337L651.9 238Z" fill="#081a28" stroke="#081a28"></path><path d="M651.9 238L623.9 106L507.3 233Z" fill="#205a7a" stroke="#205a7a"></path><path d="M670.9 337L742.4 209L651.9 238Z" fill="#112e42" stroke="#112e42"></path><path d="M651.9 238L742.4 209L623.9 106Z" fill="#15384f" stroke="#15384f"></path><path d="M623.9 106L531.3 92L507.3 233Z" fill="#00101c" stroke="#00101c"></path><path d="M610.9 464L746.4 374L670.9 337Z" fill="#1d4e6b" stroke="#1d4e6b"></path><path d="M670.9 337L746.4 374L742.4 209Z" fill="#00101c" stroke="#00101c"></path><path d="M543.3 339L610.9 464L670.9 337Z" fill="#00101c" stroke="#00101c"></path><path d="M531.3 92L402.7 140L507.3 233Z" fill="#205a7a" stroke="#205a7a"></path><path d="M507.3 233L353.7 266L543.3 339Z" fill="#19435d" stroke="#19435d"></path><path d="M543.3 339L482.3 506L610.9 464Z" fill="#246688" stroke="#246688"></path><path d="M402.7 140L353.7 266L507.3 233Z" fill="#246688" stroke="#246688"></path><path d="M742.4 209L778.4 142L623.9 106Z" fill="#0c2435" stroke="#0c2435"></path><path d="M900 252L778.4 142L742.4 209Z" fill="#1d4e6b" stroke="#1d4e6b"></path><path d="M353.7 266L357.7 388L543.3 339Z" fill="#246688" stroke="#246688"></path><path d="M357.7 388L482.3 506L543.3 339Z" fill="#297ea6" stroke="#297ea6"></path><path d="M623.9 106L616.9 0L531.3 92Z" fill="#00101c" stroke="#00101c"></path><path d="M531.3 92L483.3 0L402.7 140Z" fill="#246688" stroke="#246688"></path><path d="M759.4 0L616.9 0L623.9 106Z" fill="#277297" stroke="#277297"></path><path d="M610.9 464L775.4 471L746.4 374Z" fill="#1d4e6b" stroke="#1d4e6b"></path><path d="M746.4 374L900 252L742.4 209Z" fill="#277297" stroke="#277297"></path><path d="M669.9 600L775.4 471L610.9 464Z" fill="#0c2435" stroke="#0c2435"></path><path d="M357.7 388L359.7 449L482.3 506Z" fill="#00101c" stroke="#00101c"></path><path d="M616.9 0L483.3 0L531.3 92Z" fill="#297ea6" stroke="#297ea6"></path><path d="M483.3 0L414.7 0L402.7 140Z" fill="#277297" stroke="#277297"></path><path d="M259.1 143L248.1 250L353.7 266Z" fill="#205a7a" stroke="#205a7a"></path><path d="M900 359L900 252L746.4 374Z" fill="#081a28" stroke="#081a28"></path><path d="M900 0L759.4 0L778.4 142Z" fill="#0c2435" stroke="#0c2435"></path><path d="M778.4 142L759.4 0L623.9 106Z" fill="#112e42" stroke="#112e42"></path><path d="M259.1 143L353.7 266L402.7 140Z" fill="#246688" stroke="#246688"></path><path d="M353.7 266L243.1 357L357.7 388Z" fill="#277297" stroke="#277297"></path><path d="M357.7 388L267.1 455L359.7 449Z" fill="#00101c" stroke="#00101c"></path><path d="M775.4 471L900 359L746.4 374Z" fill="#205a7a" stroke="#205a7a"></path><path d="M362.7 600L525.3 600L482.3 506Z" fill="#15384f" stroke="#15384f"></path><path d="M482.3 506L525.3 600L610.9 464Z" fill="#0c2435" stroke="#0c2435"></path><path d="M414.7 0L259.1 143L402.7 140Z" fill="#246688" stroke="#246688"></path><path d="M525.3 600L669.9 600L610.9 464Z" fill="#081a28" stroke="#081a28"></path><path d="M775.4 471L900 493L900 359Z" fill="#19435d" stroke="#19435d"></path><path d="M248.1 250L243.1 357L353.7 266Z" fill="#1d4e6b" stroke="#1d4e6b"></path><path d="M359.7 449L362.7 600L482.3 506Z" fill="#15384f" stroke="#15384f"></path><path d="M900 252L900 132L778.4 142Z" fill="#0c2435" stroke="#0c2435"></path><path d="M243.1 357L267.1 455L357.7 388Z" fill="#297ea6" stroke="#297ea6"></path><path d="M789.4 600L900 493L775.4 471Z" fill="#19435d" stroke="#19435d"></path><path d="M669.9 600L789.4 600L775.4 471Z" fill="#15384f" stroke="#15384f"></path><path d="M267.1 455L362.7 600L359.7 449Z" fill="#1d4e6b" stroke="#1d4e6b"></path><path d="M900 132L900 0L778.4 142Z" fill="#081a28" stroke="#081a28"></path><path d="M259.1 143L144.6 246L248.1 250Z" fill="#297ea6" stroke="#297ea6"></path><path d="M248.1 250L144.6 246L243.1 357Z" fill="#00101c" stroke="#00101c"></path><path d="M243.1 357L140.6 472L267.1 455Z" fill="#15384f" stroke="#15384f"></path><path d="M114.6 117L144.6 246L259.1 143Z" fill="#246688" stroke="#246688"></path><path d="M414.7 0L225.1 0L259.1 143Z" fill="#277297" stroke="#277297"></path><path d="M789.4 600L900 600L900 493Z" fill="#1d4e6b" stroke="#1d4e6b"></path><path d="M140.6 472L246.1 600L267.1 455Z" fill="#277297" stroke="#277297"></path><path d="M267.1 455L246.1 600L362.7 600Z" fill="#19435d" stroke="#19435d"></path><path d="M102.6 388L140.6 472L243.1 357Z" fill="#277297" stroke="#277297"></path><path d="M225.1 0L114.6 117L259.1 143Z" fill="#081a28" stroke="#081a28"></path><path d="M144.6 246L102.6 388L243.1 357Z" fill="#081a28" stroke="#081a28"></path><path d="M0 246L102.6 388L144.6 246Z" fill="#00101c" stroke="#00101c"></path><path d="M225.1 0L153.6 0L114.6 117Z" fill="#246688" stroke="#246688"></path><path d="M0 496L160.6 600L140.6 472Z" fill="#081a28" stroke="#081a28"></path><path d="M140.6 472L160.6 600L246.1 600Z" fill="#246688" stroke="#246688"></path><path d="M0 89L0 246L114.6 117Z" fill="#205a7a" stroke="#205a7a"></path><path d="M114.6 117L0 246L144.6 246Z" fill="#0c2435" stroke="#0c2435"></path><path d="M102.6 388L0 496L140.6 472Z" fill="#1d4e6b" stroke="#1d4e6b"></path><path d="M0 246L0 388L102.6 388Z" fill="#00101c" stroke="#00101c"></path><path d="M0 0L0 89L114.6 117Z" fill="#112e42" stroke="#112e42"></path><path d="M0 388L0 496L102.6 388Z" fill="#112e42" stroke="#112e42"></path><path d="M153.6 0L0 0L114.6 117Z" fill="#297ea6" stroke="#297ea6"></path><path d="M0 496L0 600L160.6 600Z" fill="#00101c" stroke="#00101c"></path></g></svg>